<svg xmlns="http://www.w3.org/2000/svg" fill="#093" viewBox="0 0 280 170">
  <path fill="#fff" d="M268.8 88.7a8.1 8.1 0 0 0-.5-3.1c-5.9-13.7-11.6-27.5-17.8-41.1a18.4 18.4 0 0 0-16.3-11.1c-7.3-.5-14.7 0-22-.3-9.3-.3-14.7 5.8-14.6 14.5.4 19.3.3 38.6.3 58v3.2l-42.4.2v-9l2.8-.6A36.7 36.7 0 0 0 185 79c5-10.1 4.8-21 3-31.6a37.2 37.2 0 0 0-37.8-30.8l-38.3.1-3.1-.1c-.1-4.3.1-8.3-2.7-11.7A13.2 13.2 0 0 0 95.5 0c-4.1-.1-8 .2-11.4 3-4.3 3.6-4.5 8.6-4.5 13.9h-3c-12.8.1-25.5 0-38.3.2-14.6.2-26 6.4-33.3 19.2-2.4 4.4-3.4 9.6-5 14.4L.1 69c1.2 4 2.2 8.1 4.1 11.7a37 37 0 0 0 29.1 19.8v9.2h-2.8l-12.5.1H5.2c-2.1 0-3.8.5-4.9 2v3.4c2.7 3.8 7 1.8 10.6 2.7a25 25 0 1 0 39.8 30.2l1.3 1.6a24.6 24.6 0 0 0 26.3 8.7 24.8 24.8 0 0 0 17.6-17.8c.3-.8 1-2.2 1.6-2.2 5.5-.2 10.9-.2 16.3-.2 2.6 10 5.9 12.6 16 12.5 6.6 0 13.1-.2 19.7 0 7.9.2 13.9-4 14.6-12.1 0-.2.2-.3.4-.6h2.5c9.6 0 19.2 0 28.8-.2 2.2 0 2.9.7 3.5 2.7 2.7 9.1 8.7 15 17.9 17.3a24 24 0 0 0 23.4-6.4c3.9-3.7 6.1-8.4 7.2-13.8l12.1-.1c6-.1 9.2-3.3 9.1-9.4l-.2-39.6zM89.3 9c1.7-1.5 7.2-1.6 9.3-.3s2.5 3.5 1.8 8l-12.7.1c-.1-2.8-.8-5.6 1.6-7.8zM8.7 68.6a57.9 57.9 0 0 1 .1-20.2c2.5-13.6 13.8-22.5 28-23.3 3-.2 5.9-.1 9.4-.1v8.1c0 2.1.8 3.8 3.1 4.3 2.5.6 4.6-1.1 4.7-3.9s0-5.6 0-8.5l80.5-.4c0 2.8-.1 5.5.1 8.2.2 3 2 4.5 4.6 4.1s3.2-2.2 3.3-4.4v-7.8c20.3-2.9 34.4 7.3 37.6 23a42 42 0 0 1-2.1 27.5 28.4 28.4 0 0 1-24.3 16.7c-3.5.3-7.1.1-11 .1v-3l-.2-36.7c0-4.2-1.3-6.1-4.1-6s-3.8 1.9-3.8 6l.2 36.7v3.3l-80.5.3v-2.9l-.2-37a22.9 22.9 0 0 0-.1-2.6 3.9 3.9 0 0 0-7.6-.4 13.1 13.1 0 0 0-.2 2.9l.2 37v2.8c-19.1 3.1-34.6-6.5-37.7-23.8zm20.9 83.2a17.3 17.3 0 0 1-17.1-17 17.1 17.1 0 1 1 17.1 17zm21-30.7-2.6-3.3h5.1zm21.2 30.5a17.4 17.4 0 0 1-17.2-17.1 17.2 17.2 0 0 1 17-17 17.1 17.1 0 0 1 .3 34.1zm-29.9-42.1V101l105.4-.5v8.5zm114 28.6c-.3 2.9-1.7 4.6-4.7 4.7q-12.3.2-24.7.1c-3 0-4.6-1.7-4.8-4.8a21.3 21.3 0 0 1 0-3.7c.3-3.1 1.8-4.6 4.9-4.6l12.3-.1h11.8c3.3 0 4.8 1.5 5.1 4.7a20.3 20.3 0 0 1 0 3.6zm47.2-19.3a68.7 68.7 0 0 0-3.8 7.1c-1.6 4.1-1.5 4.1-6 4.2-9.2 0-18.4 0-27.5.2a3.4 3.4 0 0 1-3.7-2.1 11.2 11.2 0 0 0-10.2-6.3q-13.1-.1-26.2.1c-4.8.1-8.2 2.6-10.5 6.7a3.6 3.6 0 0 1-2.5 1.7c-4.9.2-9.8.2-14.7.1a2.9 2.9 0 0 1-2.1-1.3c-1.8-3.8-3.4-7.7-5.1-11.7l113.4-.5-1.1 1.8zM248.2 59c2.9 6.3 5.6 12.8 8.3 19.2a4.1 4.1 0 0 1 0 1.1H251l-18.6.1c-6.7 0-10-3.3-10-9.9V57.8h23.4a3.2 3.2 0 0 1 2.4 1.2zm-25 91.9a17.2 17.2 0 0 1-17.2-17.1 17.1 17.1 0 0 1 34.1-.1 17.3 17.3 0 0 1-16.9 17.2zm37.8-61v10.3c-4 .2-8.3-.5-11 3.4-2.1 3-1.6 6.4-1.4 9.6.3 5.1 3.3 6.9 12.6 7.7v8.5l-12.5.1c-2.4-4.3-4.2-8.7-7.1-12.2-5-6.1-11.9-8.6-19.7-8.5l-16 .1v-3.1l-.3-58.2c0-5.2 1.3-6.6 6.4-6.6l19.1-.1c6.3 0 11.1 3.2 12.9 8.9l-21.7.1c-7.5 0-7.8.4-7.8 7.9V69c.1 11.5 6.8 18.2 18.3 18.2 8.4 0 16.8 0 25.2-.2 2.3 0 3 .7 2.9 2.9zm-.2 18.5v4.4h-4.5v-4.4z"/>
  <path fill="currentColor" d="M24.9 150.8a17.4 17.4 0 0 1-10.4-8.7 16.4 16.4 0 0 1 7.6-22.4c3-1.5 3.2-1.5 7.4-1.5 4 0 4.5.1 7 1.3a17 17 0 0 1 9 20.2 18 18 0 0 1-11.1 11.1c-2.5.7-7.2.8-9.5 0zm42.7 0c-4.9-1.3-9-4.8-11.3-9.5-1.1-2.1-1.2-2.7-1.2-6.8s.1-4.7 1.2-6.8c2.5-5.2 7.3-8.8 12.8-9.7 7.1-1.2 15 3.5 17.7 10.6a16.8 16.8 0 0 1-11.6 22.3c-2.6.7-4.8.7-7.6-.1zm150.4-.9a17.5 17.5 0 0 1-10.3-9.3c-1-2.2-1.1-2.9-1.1-6.9 0-4.2.1-4.6 1.3-7.2a16.8 16.8 0 0 1 30.4.3c1.2 2.5 1.3 3.1 1.3 6.8 0 3.7-.1 4.3-1.3 6.8a17.6 17.6 0 0 1-8.2 8.4 12.4 12.4 0 0 1-6.6 1.6c-2.7.1-4.1-.1-5.6-.6z"/>
  <path fill="currentColor" d="M32.1 92A28.5 28.5 0 0 1 9 69.2a57.3 57.3 0 0 1 .5-22.6 28.4 28.4 0 0 1 18.8-19.7c3.8-1.3 4.4-1.4 10.8-1.5l6.8-.2.1 5.2c.1 5.1.2 5.2 1.3 6.2 1.6 1.4 4.3 1.4 5.6-.1.9-1 1-1.4 1.1-6.1l.1-5 28.4-.3 40-.3H134V28c0 7 .9 9 4.2 9 3.5 0 4.4-1.7 4.4-8.2v-3.9l3.1-.3a36 36 0 0 1 21 4.5c9 5.3 13.6 14.5 14.1 28.5.3 7.3-.6 12-3.3 17.5a28.4 28.4 0 0 1-18.9 15.8c-3.3.8-12.3 1.5-14.6 1l-1.5-.3V71.1c0-21.1-.1-22.9-1.7-24.4-1.2-1.2-3.7-1.1-5.2.2l-1.1 1-.1 22.1-.1 22.1h-80v-8.7c.2-4.7.1-14.4 0-21.6l-.3-13-1.1-1.1c-1.6-1.6-3.6-1.5-5.4.1L46.2 49v43.2l-1.4.2c-2.5.4-9.9.2-12.7-.4zm216.4 36.9-1.9-3.6c-3.8-7.6-7.5-11.7-12.7-14.2-4.3-2-7.8-2.5-18.6-2.5H206l-.1-25.4c-.2-38.2-.2-38.8.4-39.9 1.1-1.9 2.4-2.1 15.5-2.1 11.5 0 12.4.1 14.6.9 2.8 1.1 5.2 3.1 6.5 5.7l1 2h-13c-8.1 0-13.5.2-14.3.4-2.1.7-2.3 1.9-2.3 12.4 0 6.1.2 10.2.5 11.6a16.2 16.2 0 0 0 13.1 12.7c1.2.2 8.7.4 16.9.4 10.9 0 14.9.1 15.2.5.3.3.5 2.3.5 6.3v5.8l-3.3.3c-5.4.4-8 2.4-8.9 7-.6 2.9 0 8.5 1.1 10 1.2 1.6 3.6 2.8 6.6 3.3l3.8.7 1.1.2v8.1H255c-4.4 0-6.2-.1-6.5-.5zm-151.7.8c-.6-.5-5.7-11.7-5.5-11.9l56.4-.4 56.2-.3-1.2 2c-.7 1.1-2.1 3.8-3.1 6s-2.2 4.1-2.6 4.3c-.5.3-27.3.7-32.8.5-.4 0-1.3-1-2.1-2.2a12.8 12.8 0 0 0-5.5-5c-1.3-.7-2.6-.8-17.3-.8-19.8 0-18.4-.4-24.7 7.1l-1.1 1.3h-7.9c-5.7 0-8.1-.1-8.6-.5z"/>
  <path fill="currentColor" d="M124.5 142.2c-2-1-2.4-2.3-2.4-6.1 0-3.2 0-3.5 1.1-4.6 1.4-1.4 4-1.7 17.9-1.7 11.8 0 12.8.2 14 2.4.8 1.8.9 6.2 0 8-1 2.3-1.1 2.3-15.9 2.5-11.8.2-13.6.1-14.7-.5z"/>
</svg>
